<svg xmlns="http://www.w3.org/2000/svg" width="28" height="16.6" viewBox="0 0 28 16.6"><path d="M8.089,15.487a1.165,1.165,0,1,1-1.165-1.165A1.165,1.165,0,0,1,8.089,15.487Zm12.88-1.165a1.165,1.165,0,1,0,1.165,1.165A1.165,1.165,0,0,0,20.969,14.322ZM25.314,21.1a7.007,7.007,0,0,1-9.838-1.194L13.97,22.161l-1.492-2.233A7,7,0,0,1,1.372,11.405,9.079,9.079,0,0,0,0,8.627l4.389,0A17.426,17.426,0,0,1,13.968,6a17.032,17.032,0,0,1,9.342,2.593l4.677,0a9.028,9.028,0,0,0-1.378,2.8A7.008,7.008,0,0,1,25.314,21.1ZM12.608,15.547a5.594,5.594,0,1,0-5.594,5.595,5.594,5.594,0,0,0,5.594-5.595v0ZM14,15.039a6.985,6.985,0,0,1,6.763-6.466A16.486,16.486,0,0,0,13.968,7.22,17.321,17.321,0,0,0,7.155,8.545,7.011,7.011,0,0,1,14,15.039Zm12.236-1.4a5.594,5.594,0,1,0-10.5,3.871v0a5.595,5.595,0,0,0,10.5-3.873ZM10.384,15.486v.006a3.464,3.464,0,1,1,0-.006Zm-1.192,0v0a2.269,2.269,0,1,0-2.265,2.274,2.269,2.269,0,0,0,2.265-2.274Zm15.236,0v0a3.462,3.462,0,1,1-3.46-3.463,3.462,3.462,0,0,1,3.46,3.463Zm-1.191,0a2.269,2.269,0,1,0-2.269,2.27,2.269,2.269,0,0,0,2.269-2.27h0Z" transform="translate(0 -5.994)" fill="#2c2c2c"/></svg>