<svg xmlns="http://www.w3.org/2000/svg" xmlns:xlink="http://www.w3.org/1999/xlink" width="96.009" height="31.833" viewBox="0 0 96.009 31.833"><defs><linearGradient id="a" x1="0.101" y1="0.052" x2="1.006" y2="1.023" gradientUnits="objectBoundingBox"><stop offset="0" stop-color="#009ee2"/><stop offset="0.266" stop-color="#232d83"/><stop offset="0.535" stop-color="#dd057e"/><stop offset="0.748" stop-color="#e4521c"/><stop offset="1" stop-color="#f4aa2c"/></linearGradient><linearGradient id="b" x1="-0.165" y1="1.518" x2="0.639" y2="2.722" gradientUnits="objectBoundingBox"><stop offset="0" stop-color="#232d83"/><stop offset="0.983" stop-color="#019ce0"/><stop offset="1" stop-color="#009ee2"/></linearGradient><linearGradient id="c" x1="-0.609" y1="2.162" x2="-1.695" y2="1.289" gradientUnits="objectBoundingBox"><stop offset="0" stop-color="#232d83"/><stop offset="0.154" stop-color="#20368a"/><stop offset="0.401" stop-color="#194d9e"/><stop offset="0.708" stop-color="#0d73be"/><stop offset="1" stop-color="#009ee2"/></linearGradient></defs><g transform="translate(1142.009 -8867.544)"><g transform="translate(-1142.009 8867.544)"><path d="M164.564,106.622a6.331,6.331,0,0,0-2.056-1.371,6.472,6.472,0,0,0-2.521-.5,6.765,6.765,0,0,0-1.745.226,6.476,6.476,0,0,0-1.558.64,6.154,6.154,0,0,0-1.306,1,6.351,6.351,0,0,0-1.008,1.306,6.546,6.546,0,0,0-.886,3.3,6.464,6.464,0,0,0,.233,1.745,6.784,6.784,0,0,0,.653,1.558,6.183,6.183,0,0,0,1.008,1.306,6.331,6.331,0,0,0,2.864,1.655,6.728,6.728,0,0,0,1.745.226,6.532,6.532,0,0,0,1.72-.226,6.4,6.4,0,0,0,1.545-.646,6.183,6.183,0,0,0,1.306-1.008,6.351,6.351,0,0,0,1.008-1.306,6.552,6.552,0,0,0,.653-1.558,6.465,6.465,0,0,0,.233-1.745,6.322,6.322,0,0,0-.511-2.554A6.246,6.246,0,0,0,164.564,106.622Zm-2.011,5.825a2.912,2.912,0,0,1-.549.983,2.561,2.561,0,0,1-.879.659,2.685,2.685,0,0,1-1.157.239,2.813,2.813,0,0,1-1.19-.239,2.7,2.7,0,0,1-.9-.659,2.964,2.964,0,0,1-.575-.983,3.766,3.766,0,0,1,0-2.424,3.106,3.106,0,0,1,.575-1.008,2.684,2.684,0,0,1,.9-.685,2.722,2.722,0,0,1,1.19-.252,2.59,2.59,0,0,1,2.036.937,3.049,3.049,0,0,1,.549,1.008,3.72,3.72,0,0,1,.194,1.2A3.781,3.781,0,0,1,162.554,112.446Zm9.135-13.013a.768.768,0,0,1,.071.349v16.8a.853.853,0,0,1-.239.646.884.884,0,0,1-.627.22h-2.612a.763.763,0,0,1-.621-.22.988.988,0,0,1-.181-.646v-16.8a1,1,0,0,1,.181-.608.707.707,0,0,1,.621-.246h2.754a.494.494,0,0,1,.239.065.733.733,0,0,1,.233.175A.773.773,0,0,1,171.688,99.433Zm30.054,7.357a9.522,9.522,0,0,1,.3,2.431v7.37a.988.988,0,0,1-.187.646.725.725,0,0,1-.588.22h-2.6a1.012,1.012,0,0,1-.666-.162.843.843,0,0,1-.181-.634v-7.434a2.193,2.193,0,0,0-.187-.9,2.37,2.37,0,0,0-.5-.724,2.283,2.283,0,0,0-.737-.485,2.334,2.334,0,0,0-.892-.175,2.011,2.011,0,0,0-.8.162,2.378,2.378,0,0,0-.7.459,2.613,2.613,0,0,0-.517.711,2.274,2.274,0,0,0-.239.924v7.421a1.136,1.136,0,0,1-.071.381.6.6,0,0,1-.22.291.94.94,0,0,1-.278.123,1.351,1.351,0,0,1-.3.032h-2.541a.886.886,0,0,1-.7-.239.9.9,0,0,1-.213-.627V99.776a.794.794,0,0,1,.912-.86h2.541a1.16,1.16,0,0,1,.575.181.635.635,0,0,1,.22.291.947.947,0,0,1,.071.362v4.913a3.058,3.058,0,0,1,.588-.621,4.61,4.61,0,0,1,.866-.549,5.491,5.491,0,0,1,1.086-.394,4.955,4.955,0,0,1,1.261-.149,4.722,4.722,0,0,1,2.224.491,4.388,4.388,0,0,1,1.552,1.345A5.866,5.866,0,0,1,201.743,106.79Zm5.715-9.1a.818.818,0,0,1,.239.672v2.192a.721.721,0,0,1-.065.291,1.117,1.117,0,0,1-.175.3.9.9,0,0,1-.278.239.713.713,0,0,1-.368.1h-2.6q-.834,0-.834-.931V98.36a.919.919,0,0,1,.2-.672.878.878,0,0,1,.627-.194h2.612A.925.925,0,0,1,207.458,97.688Zm.149,6a.674.674,0,0,1,.1.362V116.59a.83.83,0,0,1-.239.646.937.937,0,0,1-.672.22h-2.579c-.556,0-.834-.291-.834-.866V104.049a.979.979,0,0,1,.2-.621.74.74,0,0,1,.627-.259h2.573a.721.721,0,0,1,.291.065.99.99,0,0,1,.291.181A.978.978,0,0,1,207.606,103.687Zm15,5.534v7.37a.988.988,0,0,1-.187.646.725.725,0,0,1-.588.22h-2.6a1.012,1.012,0,0,1-.666-.162.843.843,0,0,1-.181-.634V109.33a1.981,1.981,0,0,0-.22-.918,2.575,2.575,0,0,0-.582-.763,2.834,2.834,0,0,0-.815-.524,2.349,2.349,0,0,0-.924-.194,2.06,2.06,0,0,0-.827.181,2.74,2.74,0,0,0-.776.5,2.854,2.854,0,0,0-.595.756,2.255,2.255,0,0,0-.278.937v7.312a1.137,1.137,0,0,1-.071.381.566.566,0,0,1-.22.291.94.94,0,0,1-.278.123,1.351,1.351,0,0,1-.3.032h-2.541a.886.886,0,0,1-.7-.239.9.9,0,0,1-.213-.627V104.01a.828.828,0,0,1,.1-.394.648.648,0,0,1,.265-.278l-.065.032a.642.642,0,0,1,.31-.155,1.809,1.809,0,0,1,.31-.032h1.7a.723.723,0,0,1,.595.265,1.08,1.08,0,0,1,.162.278c.039.1.078.213.116.323l.239.989a2.56,2.56,0,0,1,.543-.718,4.206,4.206,0,0,1,.931-.672,5.864,5.864,0,0,1,1.286-.5,6.326,6.326,0,0,1,1.629-.194,5.13,5.13,0,0,1,2.289.491,5.04,5.04,0,0,1,1.707,1.345,5.844,5.844,0,0,1,1.067,1.991A7.726,7.726,0,0,1,222.6,109.221Zm-36.558-4.144a6.778,6.778,0,0,0-2.237-1.564,6.956,6.956,0,0,0-2.838-.569,4.361,4.361,0,0,0-1.487.226,3.678,3.678,0,0,0-1.047.569,4.222,4.222,0,0,0-.756.763c-.213.284-.427.556-.634.827l-.472-1.358q-.058-.184-.116-.33a1.089,1.089,0,0,0-.149-.272.61.61,0,0,0-.233-.187.833.833,0,0,0-.356-.065h-1.7a1.676,1.676,0,0,0-.3.032.717.717,0,0,0-.3.155,1.373,1.373,0,0,0-.207.272.707.707,0,0,0-.084.368v17.086a.677.677,0,0,0,.091.343.775.775,0,0,0,.226.252,1.054,1.054,0,0,0,.291.155.831.831,0,0,0,.291.058H176.6a.76.76,0,0,0,.627-.239.844.844,0,0,0,.2-.575v-5.243c.2.226.407.453.621.672a4.251,4.251,0,0,0,.724.621,3.5,3.5,0,0,0,.937.453,4.01,4.01,0,0,0,1.261.175,6.959,6.959,0,0,0,2.838-.575,6.8,6.8,0,0,0,2.237-1.571,7.287,7.287,0,0,0,1.467-2.347,7.957,7.957,0,0,0,.53-2.9,7.834,7.834,0,0,0-.53-2.909A7.291,7.291,0,0,0,186.047,105.077Zm-2.373,6.639a3.4,3.4,0,0,1-.666,1.131,3.212,3.212,0,0,1-1.021.756,3.031,3.031,0,0,1-1.319.278,3.457,3.457,0,0,1-1.383-.278,3.723,3.723,0,0,1-1.138-.756,3.527,3.527,0,0,1-.763-1.131,3.479,3.479,0,0,1-.284-1.4v-.168a3.421,3.421,0,0,1,.33-1.319,3.712,3.712,0,0,1,.776-1.073,3.574,3.574,0,0,1,1.112-.718,3.512,3.512,0,0,1,1.345-.265,3.076,3.076,0,0,1,1.319.284,3.137,3.137,0,0,1,1.021.763,3.584,3.584,0,0,1,.666,1.131,4.01,4.01,0,0,1,.239,1.364A3.819,3.819,0,0,1,183.674,111.716Zm-45.99-12.794h-.019c-.55-.006-1.752.1-2.444.129,0,0-.388.045-.368.621s-.129,3.265.175,3.575a8.267,8.267,0,0,0,1.5.039v.142c0,2.463-.246,5.023-.246,7.512,0,1.849.123,3.446.123,5.075,0,1.06,3.1,1.6,4.726,1.6,4.629-.1,10.641-3.446,11.675-8.52a9.477,9.477,0,0,0-1.552-6.717C148.92,99.666,144.155,98.922,137.684,98.922ZM141,113.035a55.088,55.088,0,0,1,.246-8.986c.1-.446.091-.614.323-.614,1.429,0,6.529.31,6.529,2.735A6.62,6.62,0,0,1,141,113.035Z" transform="translate(-131.482 -97.493)" fill="url(#a)"/><g transform="translate(92.105 16.35)"><path d="M1509.652,350.4a2,2,0,0,1,.517.071,1.863,1.863,0,0,1,.466.194,1.939,1.939,0,0,1,.7.7,2.3,2.3,0,0,1,.2.465,1.942,1.942,0,0,1,0,1.041,1.861,1.861,0,0,1-.194.465,1.935,1.935,0,0,1-.7.7,2.462,2.462,0,0,1-.465.2,2.007,2.007,0,0,1-.524.071,1.957,1.957,0,0,1-.517-.071,1.864,1.864,0,0,1-.466-.194,1.937,1.937,0,0,1-.7-.7,2.305,2.305,0,0,1-.2-.465,1.941,1.941,0,0,1,0-1.041,1.864,1.864,0,0,1,.194-.465,1.937,1.937,0,0,1,.7-.7,2.305,2.305,0,0,1,.466-.2A1.932,1.932,0,0,1,1509.652,350.4Zm-.006.595a1.363,1.363,0,0,0-.362.052,1.314,1.314,0,0,0-.323.136,1.273,1.273,0,0,0-.278.213,1.409,1.409,0,0,0-.213.272,1.43,1.43,0,0,0-.136.323,1.308,1.308,0,0,0-.045.356,1.323,1.323,0,0,0,.052.362,1.307,1.307,0,0,0,.136.323,1.271,1.271,0,0,0,.213.278,1.411,1.411,0,0,0,.271.213,1.312,1.312,0,0,0,.679.181,1.363,1.363,0,0,0,1.254-.834,1.285,1.285,0,0,0,.11-.524,1.36,1.36,0,0,0-.052-.362,1.316,1.316,0,0,0-.136-.323,1.271,1.271,0,0,0-.213-.278,1.408,1.408,0,0,0-.272-.213,1.428,1.428,0,0,0-.323-.136A2.217,2.217,0,0,0,1509.646,350.995Zm-.737.485a.073.073,0,0,1,.02-.052.054.054,0,0,1,.045-.013h.912a.522.522,0,0,1,.239.058.658.658,0,0,1,.194.136.781.781,0,0,1,.129.194.554.554,0,0,1,.045.233.656.656,0,0,1-.078.317.552.552,0,0,1-.22.22l.317.672a.006.006,0,0,0,.006.006v.006c0,.032-.019.045-.058.045h-.472a.061.061,0,0,1-.052-.039l-.278-.614h-.168v.6a.039.039,0,0,1-.02.039.093.093,0,0,1-.045.013h-.453a.093.093,0,0,1-.045-.013.039.039,0,0,1-.019-.039Zm1.009.543a.189.189,0,0,0-.013-.058.139.139,0,0,0-.032-.052.366.366,0,0,0-.052-.039.117.117,0,0,0-.065-.013h-.272v.336h.272a.161.161,0,0,0,.123-.045A.218.218,0,0,0,1509.918,352.023Z" transform="translate(-1507.7 -350.4)" fill="#203383"/></g><path d="M197.02,452.017c-.782-.349-1.539-.692-2.3-.983a22.75,22.75,0,0,0-2.276-.743,17.837,17.837,0,0,0-4.493-.627,18.188,18.188,0,0,0-4.351.5c-1.442.343-2.909.847-4.512,1.338-.194.065-.4.123-.608.181l-.621.175c-.207.058-.427.11-.64.162s-.42.11-.646.155l-.666.129-.33.065-.343.045-.685.091c-.226.032-.465.039-.692.058l-.7.039-.7-.013-.349-.006a3.156,3.156,0,0,1-.349-.019l-.7-.071a12.959,12.959,0,0,1-2.715-.588,14.086,14.086,0,0,1-2.515-1.093c-.4-.213-.776-.465-1.151-.711-.362-.265-.724-.524-1.06-.815l-.252-.213c-.084-.071-.162-.149-.246-.226-.162-.149-.323-.3-.478-.453-.3-.323-.608-.627-.873-.97a13.621,13.621,0,0,1-1.467-2.12,36.942,36.942,0,0,0,4.409,2.166,16.657,16.657,0,0,0,2.192.718,16.3,16.3,0,0,0,2.191.407l.272.032.272.019.272.026.272.013c.362.019.724.019,1.086.006l.537-.013c.181-.006.356-.032.537-.045l.537-.052.537-.084.265-.039c.091-.013.175-.026.265-.045l.537-.11.265-.052.272-.071.543-.136q.553-.145,1.105-.31l.569-.168.575-.175a33.289,33.289,0,0,1,5.03-1.228c.459-.052.905-.116,1.37-.136L184.9,446l.343-.006.349.013.692.032a4.832,4.832,0,0,1,.685.071,13.489,13.489,0,0,1,1.358.22A14.283,14.283,0,0,1,193.3,448.4a14.11,14.11,0,0,1,2.043,1.655A10.1,10.1,0,0,1,197.02,452.017Z" transform="translate(-155.301 -422.815)" fill="url(#b)"/><path d="M90.8,382.9a5.32,5.32,0,0,1-1.506.116,6.362,6.362,0,0,1-1.539-.271,6.19,6.19,0,0,1-1.487-.659l-.181-.1c-.058-.039-.116-.078-.168-.116-.116-.078-.226-.162-.343-.246s-.213-.181-.323-.278a3.293,3.293,0,0,1-.31-.291,6.719,6.719,0,0,1-.562-.646,6.974,6.974,0,0,1-.485-.718,6.847,6.847,0,0,1-.672-1.6,6.745,6.745,0,0,1-.259-1.713,6.114,6.114,0,0,1,.187-1.732,1.514,1.514,0,0,1,2.974.491l-.006.084c-.026.356-.045.731-.039,1.1a7.1,7.1,0,0,0,.084,1.112,7.193,7.193,0,0,0,.246,1.093,6.839,6.839,0,0,0,.446,1.06,2.649,2.649,0,0,0,.149.259l.155.259c.058.078.116.162.175.246.032.039.058.084.09.123l.1.116a6.5,6.5,0,0,0,.892.9c.168.142.343.271.524.407l.284.188c.1.065.194.116.3.181A9.87,9.87,0,0,0,90.8,382.9Z" transform="translate(-82.968 -355.671)" fill="url(#c)"/><g transform="translate(22.331 1.623)"><path d="M428.4,125.721h1.506v3.885h.853v-3.885h1.513V124.9H428.4Z" transform="translate(-428.4 -124.751)" fill="#203383"/><path d="M498.816,123.822a2.539,2.539,0,0,0-.763.116V122.6H497.2v4.849h.853v-2.676a2.121,2.121,0,0,1,.7-.123c.3,0,.627.052.627.7v2.107h.853v-2.088A1.365,1.365,0,0,0,498.816,123.822Z" transform="translate(-492.752 -122.6)" fill="#203383"/><path d="M556.8,141.5c-1.06,0-1.6.634-1.6,1.888,0,1.571,1.041,1.8,1.661,1.8a3.061,3.061,0,0,0,1.228-.233l.071-.032v-.834l-.175.09a2.352,2.352,0,0,1-1.093.233.708.708,0,0,1-.8-.608h2.269l.013-.11c.013-.149.019-.31.019-.472A1.561,1.561,0,0,0,556.8,141.5Zm0,.789c.485,0,.666.368.724.73h-1.448C556.15,142.405,556.389,142.289,556.8,142.289Z" transform="translate(-547.003 -140.278)" fill="#203383"/></g></g><g transform="translate(-1089.585 8891.878)"><path d="M898.335,474.243a4.68,4.68,0,0,0-1.739-.343c-1.228,0-2.7.517-2.7,2.967s1.467,2.967,2.7,2.967a4.655,4.655,0,0,0,1.739-.343.128.128,0,0,0,.078-.116v-.718a.122.122,0,0,0-.174-.11,3.772,3.772,0,0,1-1.552.336c-1.241,0-1.745-.588-1.745-2.023s.5-2.023,1.745-2.023a3.832,3.832,0,0,1,1.552.336.122.122,0,0,0,.174-.11v-.718A.125.125,0,0,0,898.335,474.243Z" transform="translate(-893.9 -473.9)" fill="#232d83"/><path d="M983.975,495.8c-.776,0-2.075.291-2.075,2.256s1.3,2.256,2.075,2.256,2.075-.291,2.075-2.256S984.751,495.8,983.975,495.8Zm0,3.594c-.537,0-1.067-.1-1.067-1.338s.53-1.338,1.067-1.338,1.067.1,1.067,1.338S984.518,499.394,983.975,499.394Z" transform="translate(-976.211 -494.384)" fill="#232d83"/><path d="M1070.873,495.5a4.246,4.246,0,0,0-1.506.3,2.045,2.045,0,0,0-1.118-.3,4.145,4.145,0,0,0-1.784.427.125.125,0,0,0-.065.11v3.808a.123.123,0,0,0,.123.123h.763a.123.123,0,0,0,.123-.123v-3.278a3.363,3.363,0,0,1,.782-.1c.769,0,.834.33.834.666v2.709a.123.123,0,0,0,.123.123h.763a.123.123,0,0,0,.123-.123v-2.67a2.085,2.085,0,0,0-.071-.543,2.7,2.7,0,0,1,.963-.181c.608,0,.737.272.737.679v2.715a.123.123,0,0,0,.123.123h.756a.123.123,0,0,0,.123-.123v-2.67A1.6,1.6,0,0,0,1070.873,495.5Z" transform="translate(-1055.248 -494.104)" fill="#232d83"/><path d="M1190.143,495.6c-1.707,0-1.843,1.118-1.843,1.461v4.454a.123.123,0,0,0,.123.123h.763a.123.123,0,0,0,.123-.123v-1.48a3.271,3.271,0,0,0,.756.091,1.948,1.948,0,0,0,2.036-2.217A2.013,2.013,0,0,0,1190.143,495.6Zm-.078,3.6a2.352,2.352,0,0,1-.756-.129v-2.062c0-.123,0-.5.834-.5.472,0,.95.168.95,1.4C1191.093,499.1,1190.589,499.2,1190.065,499.2Z" transform="translate(-1169.268 -494.197)" fill="#232d83"/><path d="M1271.64,496.391a4.631,4.631,0,0,0-1.48-.291c-1.429,0-2.159.931-2.159,2.392,0,1.19.459,2.017,1.629,2.017a1.338,1.338,0,0,0,1.138-.556l.032.006.058.44h.853l-.078-.8v-3.213Zm-.983,2.7a.759.759,0,0,1-.815.724c-.7,0-.866-.659-.866-1.345,0-.9.265-1.636,1.054-1.636a1.616,1.616,0,0,1,.621.11v2.146Z" transform="translate(-1243.816 -494.665)" fill="#232d83"/><path d="M1353.188,495.5a4.073,4.073,0,0,0-1.823.446.125.125,0,0,0-.065.11v3.788a.123.123,0,0,0,.123.123h.763a.123.123,0,0,0,.123-.123v-3.278a3.09,3.09,0,0,1,.853-.116c.756,0,.815.33.815.666v2.728a.123.123,0,0,0,.123.123h.763a.123.123,0,0,0,.123-.123v-2.676A1.616,1.616,0,0,0,1353.188,495.5Z" transform="translate(-1321.73 -494.104)" fill="#232d83"/><path d="M1431.63,496.752a.123.123,0,0,0-.1-.052h-.814a.124.124,0,0,0-.116.084l-.983,2.786-1-2.786a.124.124,0,0,0-.116-.084h-.814a.135.135,0,0,0-.1.052.113.113,0,0,0-.013.11l1.545,4.105c-.11.33-.343.834-.7.834a1.564,1.564,0,0,1-.433-.065.114.114,0,0,0-.1.019.117.117,0,0,0-.045.1v.685a.113.113,0,0,0,.1.116,2.932,2.932,0,0,0,.608.071c.427,0,1.015-.22,1.4-1.274l1.707-4.59A.113.113,0,0,0,1431.63,496.752Z" transform="translate(-1393.068 -495.226)" fill="#232d83"/></g></g></svg>