<svg xmlns="http://www.w3.org/2000/svg" width="24" height="27.625" viewBox="0 0 24 27.625"><path d="M14.973.023c1.508-.023,3-.012,4.5-.023a7.169,7.169,0,0,0,2.014,4.8,8.117,8.117,0,0,0,4.88,2.06V11.5a12.32,12.32,0,0,1-4.834-1.116,14.221,14.221,0,0,1-1.865-1.07c-.012,3.361.012,6.722-.023,10.072a8.792,8.792,0,0,1-1.554,4.535,8.575,8.575,0,0,1-6.8,3.695,8.393,8.393,0,0,1-4.7-1.186,8.68,8.68,0,0,1-4.2-6.572c-.023-.576-.035-1.151-.012-1.715A8.665,8.665,0,0,1,12.43,10.451c.023,1.7-.046,3.407-.046,5.111A3.949,3.949,0,0,0,7.342,18a4.566,4.566,0,0,0-.161,1.853,3.917,3.917,0,0,0,4.029,3.3A3.867,3.867,0,0,0,14.4,21.306a2.656,2.656,0,0,0,.472-1.22c.115-2.06.069-4.109.081-6.17.012-4.639-.012-9.266.023-13.893Z" transform="translate(-2.369)" fill="#2c2c2c"/></svg>